mtllib materials.mtl
v -0.1128571 0.1792857 0.08285713
v -0.1128571 0.1792857 0.05285716
v -0.1128571 0.2292857 0.05285716
v -0.1128571 0.2292857 0.08285713
v 0.1071429 0.1792857 0.08285713
v 0.1071429 0.2292857 0.08285713
v 0.1071429 0.2292857 0.05285716
v 0.1071429 0.1792857 0.05285716
v -0.1128571 -0.2007143 0.08285713
v -0.1128571 -0.2007143 0.05285716
v -0.1128571 0.2792857 0.05285716
v -0.1128571 0.2792857 0.08285713
v -0.08285713 -0.2007143 0.08285713
v -0.08285713 0.2792857 0.08285713
v -0.08285713 0.2792857 0.05285716
v -0.08285713 -0.2007143 0.05285716
v 0.1171429 -0.2007143 0.08285713
v 0.08714294 -0.2007143 0.08285713
v 0.08714294 0.2792857 0.08285713
v 0.1171429 0.2792857 0.08285713
v 0.1171429 -0.2007143 0.05285716
v 0.1171429 0.2792857 0.05285716
v 0.08714294 0.2792857 0.05285716
v 0.08714294 -0.2007143 0.05285716
v 0.08714283 -0.2007143 -0.1071428
v 0.08714283 -0.2007143 -0.1371428
v 0.08714283 0.0192857 -0.1371428
v 0.08714283 0.0192857 -0.1071428
v 0.1171428 -0.2007143 -0.1071428
v 0.1171428 0.0192857 -0.1071428
v 0.1171428 0.0192857 -0.1371428
v 0.1171428 -0.2007143 -0.1371428
v -0.1128571 -0.2007143 -0.1071428
v -0.1128571 -0.2007143 -0.1371428
v -0.1128571 0.01928573 -0.1371428
v -0.1128571 0.01928573 -0.1071428
v -0.08285713 -0.2007143 -0.1071428
v -0.08285713 0.01928573 -0.1071428
v -0.08285713 0.01928573 -0.1371428
v -0.08285713 -0.2007143 -0.1371428
v -0.1128571 -0.1207143 0.08285713
v -0.1128571 -0.1207143 0.05285716
v -0.1128571 -0.09071429 0.05285716
v -0.1128571 -0.09071429 0.08285713
v 0.09714293 -0.1207143 0.08285713
v 0.09714293 -0.09071426 0.08285713
v 0.09714293 -0.09071426 0.05285716
v 0.09714293 -0.1207143 0.05285716
v 0.1171429 -0.01071425 0.08285713
v -0.1128571 -0.01071429 0.08285713
v -0.1128571 0.01928571 0.08285713
v 0.1171429 0.01928575 0.08285713
v 0.1171429 -0.01071425 -0.1371429
v 0.1171429 0.01928575 -0.1371429
v -0.1128571 0.01928571 -0.1371429
v -0.1128571 -0.01071429 -0.1371429
vn -1 0 -8.742278E-08
vn 1 0 8.742278E-08
vn -1.528548E-14 -1 1.748456E-07
vn 1.528548E-14 1 -1.748456E-07
vn -8.742278E-08 1.748456E-07 1
vn 8.742278E-08 -1.748456E-07 -1
vn -1 -1.748456E-07 -8.742275E-08
vn 1 1.748456E-07 8.742275E-08
vn 1.748455E-07 -1 1.748456E-07
vn -1.748455E-07 1 -1.748456E-07
vn -8.742278E-08 1.748456E-07 1
vn 8.742278E-08 -1.748456E-07 -1
vn -1.192093E-07 -1.748456E-07 1
vn 1.192093E-07 1.748456E-07 -1
vn 1.748456E-07 -1 -1.748456E-07
vn -1.748456E-07 1 1.748456E-07
vn 1 1.748456E-07 1.192093E-07
vn -1 -1.748456E-07 -1.192093E-07
vn -1 2.292822E-14 -2.622683E-07
vn 1 -2.292822E-14 2.622683E-07
vn -2.292823E-14 -1 2.292822E-14
vn 2.292823E-14 1 -2.292822E-14
vn -2.622683E-07 2.292822E-14 1
vn 2.622683E-07 -2.292822E-14 -1
vn -1 2.292822E-14 -2.622683E-07
vn 1 -2.292822E-14 2.622683E-07
vn -2.292823E-14 -1 2.292822E-14
vn 2.292823E-14 1 -2.292822E-14
vn -2.622683E-07 2.292822E-14 1
vn 2.622683E-07 -2.292822E-14 -1
vn -1 -1.748456E-07 -8.742275E-08
vn 1 1.748456E-07 8.742275E-08
vn 1.748455E-07 -1 1.748456E-07
vn -1.748455E-07 1 -1.748456E-07
vn -8.742278E-08 1.748456E-07 1
vn 8.742278E-08 -1.748456E-07 -1
vn -1.192093E-07 0 1
vn 1.192093E-07 0 -1
vn 1.748456E-07 -1 0
vn -1.748456E-07 1 0
vn 1 1.748456E-07 1.192093E-07
vn -1 -1.748456E-07 -1.192093E-07
vt -0.1546093 -0.09323061
vt -0.1521681 -0.0914869
vt -0.1550743 -0.08741824
vt -0.1575155 -0.08916195
vt 0.1546093 -0.09323061
vt 0.1575155 -0.08916195
vt 0.1550743 -0.08741824
vt 0.1521681 -0.0914869
vt 0.2071832 0.04493456
vt 0.2145826 0.06565288
vt 0.2117574 0.06666189
vt 0.204358 0.04594357
vt -0.2071832 0.04493456
vt -0.204358 0.04594357
vt -0.2117574 0.06666189
vt -0.2145826 0.06565288
vt -0.03756598 0.1064368
vt -0.03309385 0.1086729
vt -0.04293255 0.1283503
vt -0.04740468 0.1261142
vt 0.03756598 0.1064368
vt 0.04740468 0.1261142
vt 0.04293255 0.1283503
vt 0.03309385 0.1086729
vt -0.1325223 -0.1241525
vt -0.1300811 -0.1224088
vt -0.1579805 -0.08334962
vt -0.1604217 -0.08509333
vt 0.1325223 -0.1241525
vt 0.1604217 -0.08509333
vt 0.1579805 -0.08334962
vt 0.1300811 -0.1224088
vt 0.2071832 0.04493456
vt 0.2081922 0.04775978
vt 0.205367 0.04876879
vt 0.204358 0.04594357
vt -0.2071832 0.04493456
vt -0.204358 0.04594357
vt -0.205367 0.0487688
vt -0.2081922 0.04775979
vt -0.07155421 0.08944272
vt -0.02862171 0.110909
vt -0.02996335 0.1135923
vt -0.07289585 0.092126
vt 0.07155422 0.08944272
vt 0.07289585 0.092126
vt 0.02996335 0.1135923
vt 0.02862171 0.110909
vt -0.08184007 0.1100146
vt -0.08049843 0.1073313
vt -0.03756593 0.1287976
vt -0.03890757 0.1314808
vt 0.08184007 0.1100146
vt 0.03890757 0.1314808
vt 0.03756592 0.1287976
vt 0.08049843 0.1073313
vt 0.2149189 0.06659459
vt 0.2120937 0.0676036
vt 0.2110847 0.06477838
vt 0.21391 0.06376937
vt -0.2149189 0.06659461
vt -0.2139099 0.06376939
vt -0.2110847 0.06477839
vt -0.2120937 0.06760361
vt 0.1325223 -0.1241525
vt 0.1604217 -0.08509333
vt 0.1579805 -0.08334962
vt 0.130081 -0.1224088
vt -0.1325223 -0.1241525
vt -0.1300811 -0.1224088
vt -0.1579805 -0.08334962
vt -0.1604217 -0.08509333
vt -0.1170613 -0.113109
vt -0.1146201 -0.1113653
vt -0.1274073 -0.09346314
vt -0.1298485 -0.09520685
vt 0.1170613 -0.113109
vt 0.1298485 -0.09520684
vt 0.1274073 -0.09346314
vt 0.1146201 -0.1113653
vt 0.1960169 0.07015977
vt 0.1970259 0.07298499
vt 0.1942006 0.073994
vt 0.1931916 0.07116877
vt -0.1960169 0.07015977
vt -0.1931916 0.07116877
vt -0.1942006 0.073994
vt -0.1970259 0.07298499
vt -0.08049847 0.1073313
vt -0.06082107 0.11717
vt -0.06216271 0.1198533
vt -0.08184011 0.1100146
vt 0.08049847 0.1073313
vt 0.08184011 0.1100146
vt 0.06216271 0.1198533
vt 0.06082107 0.11717
vt -0.1170613 -0.113109
vt -0.1146201 -0.1113653
vt -0.1274073 -0.09346314
vt -0.1298486 -0.09520685
vt 0.1170613 -0.113109
vt 0.1298486 -0.09520685
vt 0.1274073 -0.09346314
vt 0.1146201 -0.1113653
vt 0.1892901 0.05132493
vt 0.1902991 0.05415016
vt 0.1874739 0.05515917
vt 0.1864649 0.05233394
vt -0.1892901 0.05132493
vt -0.1864649 0.05233394
vt -0.1874739 0.05515917
vt -0.1902991 0.05415016
vt -0.0715542 0.08944276
vt -0.05187679 0.09928145
vt -0.05321844 0.1019647
vt -0.07289583 0.09212603
vt 0.0715542 0.08944275
vt 0.07289583 0.09212603
vt 0.05321844 0.1019647
vt 0.05187679 0.09928145
vt -0.1371722 -0.1176427
vt -0.134731 -0.1158989
vt -0.1364747 -0.1134578
vt -0.1389159 -0.1152015
vt 0.1371722 -0.1176427
vt 0.1389159 -0.1152015
vt 0.1364747 -0.1134578
vt 0.134731 -0.1158989
vt 0.2071832 0.04493456
vt 0.2142463 0.06471115
vt 0.2114211 0.06572016
vt 0.204358 0.04594357
vt -0.2071832 0.04493456
vt -0.204358 0.04594357
vt -0.2114211 0.06572016
vt -0.2142463 0.06471115
vt -0.0643988 0.09302042
vt -0.06171552 0.09436207
vt -0.071107 0.113145
vt -0.07379028 0.1118034
vt 0.0643988 0.09302042
vt 0.07379028 0.1118034
vt 0.071107 0.113145
vt 0.06171552 0.09436207
vt -0.06484598 0.1185116
vt -0.05456007 0.0979398
vt -0.05187679 0.09928144
vt -0.0621627 0.1198533
vt 0.06484598 0.1185116
vt 0.0621627 0.1198533
vt 0.05187679 0.09928144
vt 0.05456007 0.0979398
vt 0.214919 0.06659462
vt 0.1942006 0.07399402
vt 0.1864649 0.05233394
vt 0.2071832 0.04493455
vt -0.214919 0.06659462
vt -0.2071832 0.04493455
vt -0.1864649 0.05233395
vt -0.1942006 0.07399402
vt 0.1435658 -0.1086916
vt 0.1453095 -0.1062504
vt 0.1274074 -0.09346314
vt 0.1256637 -0.09590434
vt -0.1435658 -0.1086916
vt -0.1256637 -0.09590434
vt -0.1274074 -0.09346315
vt -0.1453095 -0.1062504
o group1429727318
g mesh1429727318
usemtl mat20
f 4/4/1 3/3/1 2/2/1 1/1/1
f 8/8/2 7/7/2 6/6/2 5/5/2
f 2/12/3 8/11/3 5/10/3 1/9/3
f 6/16/4 7/15/4 3/14/4 4/13/4
f 5/20/5 6/19/5 4/18/5 1/17/5
f 3/24/6 7/23/6 8/22/6 2/21/6
o group186090110
g mesh186090110
usemtl mat20
f 12/28/7 11/27/7 10/26/7 9/25/7
f 16/32/8 15/31/8 14/30/8 13/29/8
f 10/36/9 16/35/9 13/34/9 9/33/9
f 14/40/10 15/39/10 11/38/10 12/37/10
f 13/44/11 14/43/11 12/42/11 9/41/11
f 11/48/12 15/47/12 16/46/12 10/45/12
o group968569892
g mesh968569892
usemtl mat20
f 20/52/13 19/51/13 18/50/13 17/49/13
f 24/56/14 23/55/14 22/54/14 21/53/14
f 18/60/15 24/59/15 21/58/15 17/57/15
f 22/64/16 23/63/16 19/62/16 20/61/16
f 21/68/17 22/67/17 20/66/17 17/65/17
f 19/72/18 23/71/18 24/70/18 18/69/18
o group1281263484
g mesh1281263484
usemtl mat20
f 28/76/19 27/75/19 26/74/19 25/73/19
f 32/80/20 31/79/20 30/78/20 29/77/20
f 26/84/21 32/83/21 29/82/21 25/81/21
f 30/88/22 31/87/22 27/86/22 28/85/22
f 29/92/23 30/91/23 28/90/23 25/89/23
f 27/96/24 31/95/24 32/94/24 26/93/24
o group636231570
g mesh636231570
usemtl mat20
f 36/100/25 35/99/25 34/98/25 33/97/25
f 40/104/26 39/103/26 38/102/26 37/101/26
f 34/108/27 40/107/27 37/106/27 33/105/27
f 38/112/28 39/111/28 35/110/28 36/109/28
f 37/116/29 38/115/29 36/114/29 33/113/29
f 35/120/30 39/119/30 40/118/30 34/117/30
o group727653651
g mesh727653651
usemtl mat20
f 44/124/31 43/123/31 42/122/31 41/121/31
f 48/128/32 47/127/32 46/126/32 45/125/32
f 42/132/33 48/131/33 45/130/33 41/129/33
f 46/136/34 47/135/34 43/134/34 44/133/34
f 45/140/35 46/139/35 44/138/35 41/137/35
f 43/144/36 47/143/36 48/142/36 42/141/36
o group1801756284
g mesh1801756284
usemtl mat20
f 52/148/37 51/147/37 50/146/37 49/145/37
f 56/152/38 55/151/38 54/150/38 53/149/38
f 50/156/39 56/155/39 53/154/39 49/153/39
f 54/160/40 55/159/40 51/158/40 52/157/40
f 53/164/41 54/163/41 52/162/41 49/161/41
f 51/168/42 55/167/42 56/166/42 50/165/42
